<svg xmlns="http://www.w3.org/2000/svg" stroke-linecap="round" stroke-linejoin="round" viewBox="-1 0 40.6 8">
  <g fill="none">
    <path stroke="#000" stroke-width="2.8" d="M0 2h1v4M0 6h2"/>
    <path stroke="#fff1e8" d="M0 2h1v4M0 6h2"/>
  </g>
  <g fill="none">
    <path stroke="#000" stroke-width="2.8" d="M4.8 2h1v4m-1 0h2"/>
    <path stroke="#fff1e8" d="M4.8 2h1v4m-1 0h2"/>
  </g>
  <g fill="none">
    <path stroke="#000" stroke-width="2.8" d="M9.6 3h2m-1 0v3"/>
    <path stroke="#fff1e8" d="M9.6 3h2m-1 0v3"/>
  </g>
  <g fill="none">
    <path stroke="#000" stroke-width="2.8" d="M16.4 3v3h-2m0-3v1h2"/>
    <path stroke="#fff1e8" d="M16.4 3v3h-2m0-3v1h2"/>
  </g>
  <g fill="none">
    <path stroke="#000" stroke-width="2.8" d="M21.2 3h-1l-1 1 2 1-1 1h-1"/>
    <path stroke="#fff1e8" d="M21.2 3h-1l-1 1 2 1-1 1h-1"/>
  </g>
  <g fill="none">
    <path stroke="#000" stroke-width="2.8" d="M24 6V3h2v3m-2-1h2"/>
    <path stroke="#fff1e8" d="M24 6V3h2v3m-2-1h2"/>
  </g>
  <g fill="none">
    <path stroke="#000" stroke-width="2.8" d="M30.8 3h-1l-1 1 2 1-1 1h-1"/>
    <path stroke="#fff1e8" d="M30.8 3h-1l-1 1 2 1-1 1h-1"/>
  </g>
  <g fill="none">
    <path stroke="#000" stroke-width="2.8" d="M35.6 3h-1l-1 1 2 1-1 1h-1"/>
    <path stroke="#fff1e8" d="M35.6 3h-1l-1 1 2 1-1 1h-1"/>
  </g>
</svg>
